<svg width="25" height="25" viewBox="0 0 25 25" fill="none" xmlns="http://www.w3.org/2000/svg">
<path d="M4.83337 4.83268C4.83337 4.32435 5.03531 3.83684 5.39475 3.47739C5.7542 3.11795 6.24171 2.91602 6.75004 2.91602H14.4167C14.6709 2.91607 14.9146 3.01707 15.0942 3.19681L19.8859 7.98847C20.0657 8.16815 20.1667 8.41187 20.1667 8.66602V20.166C20.1667 20.6743 19.9648 21.1619 19.6053 21.5213C19.2459 21.8807 18.7584 22.0827 18.25 22.0827H6.75004C6.24171 22.0827 5.7542 21.8807 5.39475 21.5213C5.03531 21.1619 4.83337 20.6743 4.83337 20.166V4.83268ZM17.8533 8.66602L14.4167 5.22943V8.66602H17.8533ZM12.5 4.83268H6.75004V20.166H18.25V10.5827H13.4584C13.2042 10.5827 12.9605 10.4817 12.7807 10.302C12.601 10.1223 12.5 9.87852 12.5 9.62435V4.83268ZM8.66671 13.4577C8.66671 13.2035 8.76767 12.9598 8.9474 12.78C9.12712 12.6003 9.37087 12.4993 9.62504 12.4993H15.375C15.6292 12.4993 15.873 12.6003 16.0527 12.78C16.2324 12.9598 16.3334 13.2035 16.3334 13.4577C16.3334 13.7118 16.2324 13.9556 16.0527 14.1353C15.873 14.315 15.6292 14.416 15.375 14.416H9.62504C9.37087 14.416 9.12712 14.315 8.9474 14.1353C8.76767 13.9556 8.66671 13.7118 8.66671 13.4577ZM8.66671 17.291C8.66671 17.0368 8.76767 16.7931 8.9474 16.6134C9.12712 16.4336 9.37087 16.3327 9.62504 16.3327H15.375C15.6292 16.3327 15.873 16.4336 16.0527 16.6134C16.2324 16.7931 16.3334 17.0368 16.3334 17.291C16.3334 17.5452 16.2324 17.7889 16.0527 17.9687C15.873 18.1484 15.6292 18.2493 15.375 18.2493H9.62504C9.37087 18.2493 9.12712 18.1484 8.9474 17.9687C8.76767 17.7889 8.66671 17.5452 8.66671 17.291Z" fill="#181F29"/>
</svg>
