<svg width="17" height="13" viewBox="0 0 17 13" fill="none" xmlns="http://www.w3.org/2000/svg">
<path d="M0.643746 11.6549H16.3629C16.5244 11.6549 16.6798 11.7196 16.7978 11.836C16.9158 11.9523 16.9875 12.1116 16.9985 12.2816C17.0095 12.4516 16.959 12.6197 16.8571 12.7518C16.7552 12.884 16.6096 12.9705 16.4496 12.9937L16.3629 13H0.643746C0.481136 13.0017 0.324045 12.9378 0.204642 12.8213C0.0852391 12.7048 0.0125578 12.5445 0.00148108 12.3733C-0.00959559 12.202 0.0417707 12.0328 0.145061 11.9003C0.248352 11.7677 0.395752 11.6818 0.557078 11.6602L0.643746 11.6549ZM0.643746 5.82878H16.3629C16.5244 5.82883 16.6798 5.89356 16.7978 6.00989C16.9158 6.12622 16.9875 6.28548 16.9985 6.45549C17.0095 6.62549 16.959 6.79357 16.8571 6.92575C16.7552 7.05794 16.6096 7.14438 16.4496 7.1676L16.3629 7.17388H0.643746C0.481136 7.17562 0.324045 7.1117 0.204642 6.99519C0.0852391 6.87868 0.0125578 6.7184 0.00148108 6.54717C-0.00959559 6.37595 0.0417707 6.20673 0.145061 6.07418C0.248352 5.94162 0.395752 5.85575 0.557078 5.83416L0.643746 5.82878ZM0.642896 0H16.3621C16.5235 5.22282e-05 16.679 0.0647844 16.7969 0.181116C16.9149 0.297448 16.9867 0.456706 16.9977 0.62671C17.0087 0.796715 16.9581 0.96479 16.8562 1.09697C16.7543 1.22916 16.6087 1.3156 16.4487 1.33883L16.3621 1.3451H0.642896C0.481436 1.34505 0.326014 1.28032 0.208034 1.16399C0.0900545 1.04765 0.0183141 0.888397 0.00730903 0.718393C-0.00369609 0.548388 0.0468546 0.380313 0.148747 0.248128C0.250638 0.115943 0.396275 0.0295043 0.556228 0.00627754L0.642896 0Z" fill="#181F29"/>
</svg>
