<svg width="25" height="25" viewBox="0 0 25 25" fill="none" xmlns="http://www.w3.org/2000/svg">
<path fill-rule="evenodd" clip-rule="evenodd" d="M19.2084 5.54466V8.66787C19.5859 8.66787 19.9598 8.74223 20.3086 8.88672C20.6574 9.0312 20.9743 9.24297 21.2413 9.50994C21.5083 9.77691 21.7201 10.0938 21.8645 10.4427C22.009 10.7915 22.0834 11.1653 22.0834 11.5429C22.0834 11.9204 22.009 12.2943 21.8645 12.6431C21.7201 12.9919 21.5083 13.3088 21.2413 13.5758C20.9743 13.8428 20.6574 14.0545 20.3086 14.199C19.9598 14.3435 19.5859 14.4179 19.2084 14.4179V17.2929C19.2084 18.8722 17.4058 19.774 16.1417 18.8262L14.1675 17.3446C13.1122 16.5534 11.8836 16.0252 10.5834 15.8036V18.5291C10.5835 19.1556 10.3571 19.761 9.94599 20.2338C9.53487 20.7065 8.96672 21.0147 8.34626 21.1016C7.7258 21.1884 7.09487 21.048 6.56976 20.7063C6.04466 20.3646 5.66077 19.8446 5.48888 19.2421L3.9843 13.9751C3.44285 13.3357 3.09049 12.558 2.96682 11.7293C2.84315 10.9006 2.95307 10.0538 3.28422 9.28421C3.61537 8.51457 4.15463 7.85256 4.84138 7.37258C5.52813 6.89261 6.33515 6.6137 7.17171 6.5672L10.064 6.4062C11.4791 6.3276 12.8553 5.91408 14.0794 5.19966L16.3257 3.88866C17.6041 3.14404 19.2084 4.06499 19.2084 5.54466ZM6.3993 15.451L7.33175 18.716C7.37663 18.874 7.47717 19.0105 7.61482 19.1002C7.75247 19.1899 7.91792 19.2268 8.08063 19.204C8.24333 19.1812 8.3923 19.1003 8.50003 18.9763C8.60775 18.8522 8.66696 18.6934 8.66671 18.5291V15.6445L7.17171 15.5612C6.91167 15.5455 6.65334 15.5086 6.3993 15.451ZM17.2917 5.54466L15.0444 6.85662C13.6797 7.65368 12.1571 8.14236 10.5834 8.28837V13.8649C12.2959 14.1007 13.926 14.7686 15.3175 15.8113L17.2917 17.2929V5.54466ZM8.66671 8.40337L7.27713 8.48004C6.63068 8.51573 6.0211 8.79247 5.56872 9.25564C5.11634 9.7188 4.85403 10.3347 4.83357 10.9818C4.81311 11.6289 5.03599 12.2602 5.45821 12.751C5.88043 13.2418 6.47131 13.5565 7.11421 13.633L7.27713 13.6474L8.66671 13.724V8.40337ZM19.2084 10.5845V12.5012C19.4526 12.5009 19.6876 12.4074 19.8652 12.2397C20.0428 12.072 20.1497 11.8429 20.164 11.599C20.1783 11.3552 20.099 11.1151 19.9422 10.9278C19.7854 10.7405 19.5631 10.6201 19.3205 10.5912L19.2084 10.5845Z" fill="#181F29"/>
</svg>
