<svg width="16" height="16" viewBox="0 0 16 16" fill="none" xmlns="http://www.w3.org/2000/svg">
<path d="M6.1619 4.16058C6.1619 3.69427 6.35556 3.24705 6.70028 2.91732C7.04501 2.58759 7.51255 2.40234 8.00006 2.40234C8.48757 2.40234 8.95511 2.58759 9.29983 2.91732C9.64456 3.24705 9.83822 3.69427 9.83822 4.16058C9.83822 4.6269 9.64456 5.07411 9.29983 5.40385C8.95511 5.73358 8.48757 5.91882 8.00006 5.91882C7.51255 5.91882 7.04501 5.73358 6.70028 5.40385C6.35556 5.07411 6.1619 4.6269 6.1619 4.16058ZM8.00006 3.28234C7.87948 3.28234 7.76009 3.30506 7.64869 3.3492C7.5373 3.39333 7.43608 3.45802 7.35082 3.53957C7.26556 3.62113 7.19793 3.71794 7.15179 3.8245C7.10565 3.93105 7.0819 4.04525 7.0819 4.16058C7.0819 4.27592 7.10565 4.39012 7.15179 4.49667C7.19793 4.60322 7.26556 4.70004 7.35082 4.78159C7.43608 4.86315 7.5373 4.92784 7.64869 4.97197C7.76009 5.01611 7.87948 5.03882 8.00006 5.03882C8.24357 5.03882 8.47711 4.9463 8.6493 4.78159C8.82148 4.61689 8.91822 4.39351 8.91822 4.16058C8.91822 3.92766 8.82148 3.70428 8.6493 3.53957C8.47711 3.37487 8.24357 3.28234 8.00006 3.28234ZM10.7601 4.60058C10.7601 4.42724 10.7958 4.25559 10.8651 4.09544C10.9345 3.93529 11.0361 3.78978 11.1643 3.6672C11.2924 3.54463 11.4445 3.4474 11.612 3.38106C11.7794 3.31473 11.9588 3.28058 12.1401 3.28058C12.3213 3.28058 12.5007 3.31473 12.6682 3.38106C12.8356 3.4474 12.9877 3.54463 13.1159 3.6672C13.244 3.78978 13.3457 3.93529 13.415 4.09544C13.4844 4.25559 13.5201 4.42724 13.5201 4.60058C13.5201 4.95067 13.3747 5.28642 13.1159 5.53396C12.8571 5.78151 12.5061 5.92058 12.1401 5.92058C11.7741 5.92058 11.4231 5.78151 11.1643 5.53396C10.9055 5.28642 10.7601 4.95067 10.7601 4.60058ZM12.1401 4.16058C12.0181 4.16058 11.9011 4.20694 11.8148 4.28946C11.7285 4.37197 11.6801 4.48389 11.6801 4.60058C11.6801 4.71728 11.7285 4.82919 11.8148 4.91171C11.9011 4.99423 12.0181 5.04058 12.1401 5.04058C12.2621 5.04058 12.3791 4.99423 12.4653 4.91171C12.5516 4.82919 12.6001 4.71728 12.6001 4.60058C12.6001 4.48389 12.5516 4.37197 12.4653 4.28946C12.3791 4.20694 12.2621 4.16058 12.1401 4.16058ZM3.86006 3.28058C3.49406 3.28058 3.14305 3.41965 2.88425 3.6672C2.62545 3.91475 2.48006 4.2505 2.48006 4.60058C2.48006 4.95067 2.62545 5.28642 2.88425 5.53396C3.14305 5.78151 3.49406 5.92058 3.86006 5.92058C4.22606 5.92058 4.57707 5.78151 4.83587 5.53396C5.09467 5.28642 5.24006 4.95067 5.24006 4.60058C5.24006 4.2505 5.09467 3.91475 4.83587 3.6672C4.57707 3.41965 4.22606 3.28058 3.86006 3.28058ZM3.40006 4.60058C3.40006 4.48389 3.44852 4.37197 3.53479 4.28946C3.62106 4.20694 3.73806 4.16058 3.86006 4.16058C3.98206 4.16058 4.09906 4.20694 4.18533 4.28946C4.27159 4.37197 4.32006 4.48389 4.32006 4.60058C4.32006 4.71728 4.27159 4.82919 4.18533 4.91171C4.09906 4.99423 3.98206 5.04058 3.86006 5.04058C3.73806 5.04058 3.62106 4.99423 3.53479 4.91171C3.44852 4.82919 3.40006 4.71728 3.40006 4.60058ZM4.56662 6.80058C4.40511 7.06813 4.32007 7.37164 4.32006 7.68058H2.48006V9.88058C2.47998 10.0995 2.53682 10.3149 2.64544 10.5076C2.75407 10.7003 2.91108 10.864 3.10234 10.9842C3.29359 11.1044 3.51309 11.1772 3.74108 11.1961C3.96907 11.215 4.19838 11.1793 4.40838 11.0923C4.47646 11.3836 4.58318 11.6617 4.72118 11.9213C4.37201 12.0562 3.99356 12.1069 3.61907 12.0692C3.24458 12.0315 2.88551 11.9064 2.57339 11.7049C2.26126 11.5034 2.00563 11.2316 1.82895 10.9136C1.65227 10.5955 1.55993 10.2408 1.56006 9.88058V7.68058C1.56006 7.44719 1.65699 7.22336 1.82952 7.05833C2.00205 6.8933 2.23606 6.80058 2.48006 6.80058H4.56662ZM11.2789 11.9213C11.6281 12.0562 12.0066 12.1069 12.381 12.0692C12.7555 12.0315 13.1146 11.9064 13.4267 11.7049C13.7389 11.5034 13.9945 11.2316 14.1712 10.9136C14.3479 10.5955 14.4402 10.2408 14.4401 9.88058V7.68058C14.4401 7.44719 14.3431 7.22336 14.1706 7.05833C13.9981 6.8933 13.7641 6.80058 13.5201 6.80058H11.4335C11.5899 7.0593 11.6801 7.35938 11.6801 7.68058H13.5201V9.88058C13.5201 10.0995 13.4633 10.3149 13.3547 10.5076C13.246 10.7003 13.089 10.864 12.8978 10.9842C12.7065 11.1044 12.487 11.1772 12.259 11.1961C12.0311 11.215 11.8017 11.1793 11.5917 11.0923C11.5218 11.3845 11.4176 11.6608 11.2789 11.9213ZM6.16006 6.7997C5.91606 6.7997 5.68205 6.89242 5.50952 7.05745C5.33699 7.22248 5.24006 7.44631 5.24006 7.6797V10.3206C5.24006 11.0208 5.53084 11.6923 6.04844 12.1873C6.56604 12.6824 7.26806 12.9606 8.00006 12.9606C8.73206 12.9606 9.43407 12.6824 9.95167 12.1873C10.4693 11.6923 10.7601 11.0208 10.7601 10.3206V7.68058C10.7601 7.44719 10.6631 7.22336 10.4906 7.05833C10.3181 6.8933 10.0841 6.80058 9.84006 6.80058L6.16006 6.7997ZM6.16006 7.6797H9.84006V10.3206C9.84006 10.7874 9.6462 11.235 9.30114 11.5651C8.95607 11.8952 8.48806 12.0806 8.00006 12.0806C7.51206 12.0806 7.04405 11.8952 6.69898 11.5651C6.35392 11.235 6.16006 10.7874 6.16006 10.3206V7.6797Z" fill="#181F29"/>
</svg>
