<svg width="24" height="24" viewBox="0 0 24 24" fill="none" xmlns="http://www.w3.org/2000/svg">
<path d="M12 0C18.6272 0.000107203 24 5.37276 24 12C23.9999 18.6271 18.6271 23.9999 12 24C5.37276 24 0.000107206 18.6272 0 12C0 5.37269 5.37269 0 12 0ZM11.9902 1.32812C6.09069 1.32816 1.30762 6.11118 1.30762 12.0107C1.30809 17.9099 6.09098 22.6923 11.9902 22.6924C17.8893 22.6921 22.6714 17.9098 22.6719 12.0107C22.6719 6.11132 17.8896 1.32838 11.9902 1.32812Z" fill="#FCFCFC"/>
<path d="M10.8218 9.7665C7.18033 6.12508 6.98872 6.37304 6.70409 6.65768C6.41945 6.94231 6.42574 7.47993 10.0672 11.1214C13.7086 14.7628 17.8585 18.2221 18.1431 17.9375C18.4278 17.6529 14.4632 13.4079 10.8218 9.7665Z" fill="#FCFCFC"/>
<path d="M14.9547 10.8222C18.5961 7.18075 18.3482 6.98913 18.0635 6.7045C17.7789 6.41986 17.2413 6.42615 13.5998 10.0676C9.95842 13.709 6.49905 17.8589 6.78368 18.1435C7.06832 18.4282 11.3133 14.4636 14.9547 10.8222Z" fill="#FCFCFC"/>
</svg>
