<svg width="25" height="25" viewBox="0 0 25 25" fill="none" xmlns="http://www.w3.org/2000/svg">
<path d="M4.83301 4.83268C4.83301 4.32435 5.03494 3.83684 5.39439 3.47739C5.75383 3.11795 6.24134 2.91602 6.74967 2.91602H14.4163C14.6705 2.91607 14.9142 3.01707 15.0939 3.19681L19.8856 7.98847C20.0653 8.16815 20.1663 8.41187 20.1663 8.66602V20.166C20.1663 20.6743 19.9644 21.1619 19.605 21.5213C19.2455 21.8807 18.758 22.0827 18.2497 22.0827H6.74967C6.24134 22.0827 5.75383 21.8807 5.39439 21.5213C5.03494 21.1619 4.83301 20.6743 4.83301 20.166V4.83268ZM17.8529 8.66602L14.4163 5.22943V8.66602H17.8529ZM12.4997 4.83268H6.74967V20.166H18.2497V10.5827H13.458C13.2038 10.5827 12.9601 10.4817 12.7804 10.302C12.6006 10.1223 12.4997 9.87852 12.4997 9.62435V4.83268ZM8.66634 13.4577C8.66634 13.2035 8.76731 12.9598 8.94703 12.78C9.12675 12.6003 9.37051 12.4993 9.62467 12.4993H15.3747C15.6288 12.4993 15.8726 12.6003 16.0523 12.78C16.232 12.9598 16.333 13.2035 16.333 13.4577C16.333 13.7118 16.232 13.9556 16.0523 14.1353C15.8726 14.315 15.6288 14.416 15.3747 14.416H9.62467C9.37051 14.416 9.12675 14.315 8.94703 14.1353C8.76731 13.9556 8.66634 13.7118 8.66634 13.4577ZM8.66634 17.291C8.66634 17.0368 8.76731 16.7931 8.94703 16.6134C9.12675 16.4336 9.37051 16.3327 9.62467 16.3327H15.3747C15.6288 16.3327 15.8726 16.4336 16.0523 16.6134C16.232 16.7931 16.333 17.0368 16.333 17.291C16.333 17.5452 16.232 17.7889 16.0523 17.9687C15.8726 18.1484 15.6288 18.2493 15.3747 18.2493H9.62467C9.37051 18.2493 9.12675 18.1484 8.94703 17.9687C8.76731 17.7889 8.66634 17.5452 8.66634 17.291Z" fill="#181F29"/>
</svg>
