<svg width="19" height="18" viewBox="0 0 19 18" fill="none" xmlns="http://www.w3.org/2000/svg">
<path d="M12.2132 2.50801L11.1279 3.09376L12.2132 3.67951L12.8068 4.75051L13.4003 3.67951L14.4856 3.09376L13.4003 2.50801L12.8075 1.43701L12.2132 2.50801ZM1.69177 9.00001C1.69177 4.85776 5.09429 1.50001 9.29177 1.50001H10.6096L9.94993 2.62501C9.50989 3.37501 9.29177 4.26676 9.29177 5.25001C9.29166 6.02522 9.46551 6.79084 9.80084 7.49187C10.1362 8.19291 10.6247 8.81196 11.2312 9.30456C11.8378 9.79716 12.5474 10.1511 13.309 10.3409C14.0706 10.5308 14.8654 10.5518 15.6363 10.4025L16.9146 10.1573L16.5019 11.3768C15.9966 12.8691 15.0286 14.1668 13.7348 15.0862C12.441 16.0056 10.8869 16.5002 9.29253 16.5C5.09505 16.5 1.69177 13.1423 1.69177 9.00001ZM15.7525 4.81201L16.4472 6.06451L17.7156 6.75001L16.4464 7.43551L15.7518 8.68801L15.0579 7.43551L13.7887 6.75001L15.0579 6.06451L15.7525 4.81201Z" fill="#181F29"/>
</svg>
