<svg width="25" height="25" viewBox="0 0 25 25" fill="none" xmlns="http://www.w3.org/2000/svg">
<path fill-rule="evenodd" clip-rule="evenodd" d="M19.2089 5.54368V8.66689C19.5864 8.66689 19.9603 8.74126 20.3091 8.88574C20.6579 9.03022 20.9748 9.24199 21.2418 9.50896C21.5088 9.77593 21.7205 10.0929 21.865 10.4417C22.0095 10.7905 22.0839 11.1643 22.0839 11.5419C22.0839 11.9194 22.0095 12.2933 21.865 12.6421C21.7205 12.9909 21.5088 13.3079 21.2418 13.5748C20.9748 13.8418 20.6579 14.0536 20.3091 14.198C19.9603 14.3425 19.5864 14.4169 19.2089 14.4169V17.2919C19.2089 18.8712 17.4062 19.773 16.1422 18.8252L14.168 17.3436C13.1127 16.5525 11.8841 16.0242 10.5839 15.8026V18.5281C10.584 19.1546 10.3576 19.7601 9.94648 20.2328C9.53536 20.7056 8.96721 21.0138 8.34675 21.1006C7.72629 21.1874 7.09536 21.0471 6.57025 20.7053C6.04514 20.3636 5.66126 19.8436 5.48937 19.2411L3.98478 13.9741C3.44334 13.3347 3.09098 12.557 2.96731 11.7283C2.84364 10.8996 2.95355 10.0529 3.28471 9.28323C3.61586 8.5136 4.15512 7.85158 4.84187 7.37161C5.52862 6.89163 6.33563 6.61272 7.1722 6.56623L10.0645 6.40523C11.4796 6.32662 12.8558 5.9131 14.0799 5.19868L16.3262 3.88768C17.6046 3.14306 19.2089 4.06402 19.2089 5.54368ZM6.39978 15.45L7.33224 18.715C7.37712 18.8731 7.47766 19.0095 7.61531 19.0992C7.75296 19.1889 7.91841 19.2258 8.08111 19.203C8.24382 19.1802 8.39279 19.0994 8.50052 18.9753C8.60824 18.8513 8.66745 18.6924 8.6672 18.5281V15.6436L7.1722 15.5602C6.91216 15.5445 6.65383 15.5076 6.39978 15.45ZM17.2922 5.54368L15.0449 6.85564C13.6802 7.6527 12.1575 8.14139 10.5839 8.28739V13.8639C12.2964 14.0997 13.9265 14.7676 15.318 15.8103L17.2922 17.2919V5.54368ZM8.6672 8.40239L7.27762 8.47906C6.63117 8.51475 6.02159 8.7915 5.56921 9.25466C5.11683 9.71782 4.85452 10.3337 4.83406 10.9809C4.8136 11.628 5.03648 12.2592 5.4587 12.75C5.88092 13.2409 6.4718 13.5556 7.1147 13.632L7.27762 13.6464L8.6672 13.7231V8.40239ZM19.2089 10.5836V12.5002C19.4531 12.5 19.6881 12.4064 19.8657 12.2387C20.0433 12.0711 20.1502 11.8419 20.1645 11.5981C20.1788 11.3542 20.0995 11.1141 19.9427 10.9268C19.7859 10.7395 19.5635 10.6191 19.321 10.5903L19.2089 10.5836Z" fill="#181F29"/>
</svg>
