<svg width="32" height="32" viewBox="0 0 32 32" fill="none" xmlns="http://www.w3.org/2000/svg">
<path fill-rule="evenodd" clip-rule="evenodd" d="M15.9998 2.66699C17.7508 2.66698 19.4846 3.01185 21.1023 3.68191C22.72 4.35197 24.1898 5.33409 25.4279 6.57221C26.6661 7.81032 27.6482 9.28018 28.3183 10.8979C28.9883 12.5155 29.3332 14.2493 29.3332 16.0003C29.3332 23.3641 23.3636 29.3337 15.9998 29.3337C8.63607 29.3337 2.6665 23.3641 2.6665 16.0003C2.6665 8.63656 8.63607 2.66699 15.9998 2.66699ZM17.3332 17.3337H14.6665C11.3656 17.3337 8.53163 19.3329 7.30932 22.1867C9.24332 24.8986 12.4151 26.667 15.9998 26.667C19.5846 26.667 22.7563 24.8986 24.6904 22.1865C23.4681 19.3329 20.6341 17.3337 17.3332 17.3337ZM15.9998 6.66699C13.7907 6.66699 11.9998 8.45787 11.9998 10.667C11.9998 12.8761 13.7907 14.667 15.9998 14.667C18.2089 14.667 19.9998 12.8761 19.9998 10.667C19.9998 8.45787 18.209 6.66699 15.9998 6.66699Z" fill="white"/>
</svg>
