<svg width="25" height="25" viewBox="0 0 25 25" fill="none" xmlns="http://www.w3.org/2000/svg">
<path d="M16.4583 3.75C16.7125 3.75 16.9563 3.84658 17.136 4.01849C17.3157 4.19039 17.4167 4.42355 17.4167 4.66667V5.58333H19.3333C19.8417 5.58333 20.3292 5.77649 20.6886 6.1203C21.0481 6.46412 21.25 6.93044 21.25 7.41667V18.4167C21.25 18.9029 21.0481 19.3692 20.6886 19.713C20.3292 20.0568 19.8417 20.25 19.3333 20.25H5.91667C5.40833 20.25 4.92082 20.0568 4.56138 19.713C4.20193 19.3692 4 18.9029 4 18.4167V7.41667C4 6.93044 4.20193 6.46412 4.56138 6.1203C4.92082 5.77649 5.40833 5.58333 5.91667 5.58333H7.83333V4.66667C7.83333 4.42355 7.9343 4.19039 8.11402 4.01849C8.29375 3.84658 8.5375 3.75 8.79167 3.75C9.04583 3.75 9.28959 3.84658 9.46931 4.01849C9.64903 4.19039 9.75 4.42355 9.75 4.66667V5.58333H15.5V4.66667C15.5 4.42355 15.601 4.19039 15.7807 4.01849C15.9604 3.84658 16.2042 3.75 16.4583 3.75ZM19.3333 7.41667H5.91667V18.4167H19.3333V7.41667ZM15.3313 9.59742C15.5121 9.43044 15.7542 9.33804 16.0054 9.34013C16.2567 9.34222 16.4971 9.43863 16.6747 9.60858C16.8524 9.77854 16.9532 10.0085 16.9554 10.2488C16.9576 10.4891 16.861 10.7207 16.6864 10.8936L11.9503 15.4247C11.8604 15.5107 11.7537 15.579 11.6362 15.6256C11.5187 15.6722 11.3928 15.6961 11.2656 15.6961C11.1384 15.6961 11.0125 15.6722 10.895 15.6256C10.7775 15.579 10.6708 15.5107 10.5809 15.4247L8.55496 13.485C8.38039 13.3121 8.2838 13.0806 8.28598 12.8402C8.28816 12.5999 8.38895 12.37 8.56663 12.2C8.74432 12.03 8.98468 11.9336 9.23595 11.9315C9.48722 11.9295 9.7293 12.0219 9.91004 12.1888L11.2661 13.485L15.3313 9.59742Z" fill="#181F29"/>
</svg>
