<svg width="19" height="19" viewBox="0 0 19 19" fill="none" xmlns="http://www.w3.org/2000/svg">
<path d="M9.10417 1.58331C7.94937 1.58331 6.84187 2.04205 6.02531 2.85862C5.20874 3.67518 4.75 4.78268 4.75 5.93748C4.75 7.09228 5.20874 8.19978 6.02531 9.01634C6.84187 9.8329 7.94937 10.2916 9.10417 10.2916C10.259 10.2916 11.3665 9.8329 12.183 9.01634C12.9996 8.19978 13.4583 7.09228 13.4583 5.93748C13.4583 4.78268 12.9996 3.67518 12.183 2.85862C11.3665 2.04205 10.259 1.58331 9.10417 1.58331ZM15.4375 10.0937V11.1831C16.0035 11.3287 16.5078 11.6264 16.9053 12.0317L17.8489 11.4863L18.6406 12.8574L17.6977 13.4021C17.8519 13.9568 17.8519 14.5431 17.6977 15.0979L18.6406 15.6425L17.8489 17.0137L16.9053 16.4682C16.5022 16.8793 15.9948 17.1727 15.4375 17.3169V18.4062H13.8542V17.3169C13.2969 17.1727 12.7894 16.8793 12.3864 16.4682L11.442 17.0137L10.6503 15.6425L11.594 15.0979C11.4398 14.5431 11.4398 13.9568 11.594 13.4021L10.6503 12.8574L11.442 11.4863L12.3864 12.0309C12.7895 11.6202 13.297 11.3271 13.8542 11.1831V10.0937H15.4375ZM13.2596 13.4844C13.13 13.7188 13.0619 13.9822 13.0617 14.25C13.0617 14.5271 13.1338 14.7883 13.2596 15.0155L13.2881 15.0654C13.4288 15.2999 13.6278 15.4939 13.8657 15.6286C14.1037 15.7633 14.3724 15.8341 14.6458 15.8341C14.9193 15.8341 15.188 15.7633 15.426 15.6286C15.6639 15.4939 15.8629 15.2999 16.0035 15.0654L16.032 15.0155C16.1579 14.7883 16.2292 14.5279 16.2292 14.25C16.2292 13.9729 16.1579 13.7116 16.032 13.4844L16.0028 13.4346C15.862 13.2003 15.6631 13.0064 15.4252 12.8718C15.1874 12.7372 14.9187 12.6665 14.6454 12.6665C14.3721 12.6665 14.1035 12.7372 13.8657 12.8718C13.6278 13.0064 13.4288 13.2003 13.2881 13.4346L13.2596 13.4844ZM10.3408 11.0833C9.66431 12.0004 9.30022 13.1104 9.30208 14.25C9.30022 15.3895 9.66431 16.4996 10.3408 17.4166H1.58333V15.8333C1.58333 14.5735 2.08378 13.3654 2.97458 12.4746C3.86537 11.5838 5.07356 11.0833 6.33333 11.0833H10.3408Z" fill="#181F29"/>
</svg>
