<svg width="18" height="17" viewBox="0 0 18 17" fill="none" xmlns="http://www.w3.org/2000/svg">
<path d="M9.97525 8.49594L17.2983 1.17005C17.4275 1.04029 17.5 0.864657 17.4999 0.681608C17.4997 0.498559 17.427 0.323019 17.2977 0.193437C17.0387 -0.0640455 16.5827 -0.0653457 16.3211 0.194737L9.00001 7.52062L1.67629 0.192786C1.41605 -0.0640455 0.959984 -0.0627452 0.701049 0.194087C0.636778 0.258063 0.5859 0.334192 0.551384 0.41803C0.516869 0.501868 0.499406 0.591737 0.500015 0.682393C0.500015 0.867052 0.571581 1.04001 0.701049 1.1681L8.02412 8.49529L0.701699 15.8231C0.572482 15.9531 0.500119 16.129 0.500485 16.3122C0.500851 16.4954 0.573916 16.6709 0.703651 16.8004C0.829215 16.9246 1.00683 16.9961 1.19029 16.9961H1.1942C1.37832 16.9954 1.55593 16.9233 1.67889 16.7978L9.00001 9.4719L16.3237 16.7997C16.4532 16.9285 16.6263 17 16.8097 17C16.9004 17.0001 16.9902 16.9823 17.074 16.9477C17.1578 16.913 17.2339 16.8622 17.298 16.7981C17.3621 16.7341 17.413 16.658 17.4476 16.5742C17.4823 16.4905 17.5001 16.4007 17.5 16.3101C17.5 16.1261 17.4284 15.9525 17.2983 15.8244L9.97525 8.49594Z" fill="#181F29"/>
</svg>
