<svg width="22" height="22" viewBox="0 0 22 22" fill="none" xmlns="http://www.w3.org/2000/svg">
<path d="M2.83333 19.1667H4.49583L15.9 7.7625L14.2375 6.1L2.83333 17.5042V19.1667ZM0.5 21.5V16.5417L15.9 1.17083C16.1333 0.956944 16.3912 0.791667 16.6735 0.675C16.9558 0.558333 17.2522 0.5 17.5625 0.5C17.8728 0.5 18.1742 0.558333 18.4667 0.675C18.7591 0.791667 19.0119 0.966667 19.225 1.2L20.8292 2.83333C21.0625 3.04722 21.2328 3.3 21.3402 3.59167C21.4475 3.88333 21.5008 4.175 21.5 4.46667C21.5 4.77778 21.4467 5.0745 21.3402 5.35683C21.2336 5.63917 21.0633 5.89661 20.8292 6.12917L5.45833 21.5H0.5ZM15.0542 6.94583L14.2375 6.1L15.9 7.7625L15.0542 6.94583Z" fill="#181F29"/>
</svg>
