<svg width="30" height="29" viewBox="0 0 30 29" fill="none" xmlns="http://www.w3.org/2000/svg">
<path d="M21.1924 0.359375C21.6234 0.359375 22.0368 0.523151 22.3416 0.814676C22.6463 1.1062 22.8176 1.50159 22.8176 1.91387V3.46836H26.0679C26.9299 3.46836 27.7566 3.79591 28.3662 4.37896C28.9757 4.96201 29.3182 5.75279 29.3182 6.57735V25.2313C29.3182 26.0558 28.9757 26.8466 28.3662 27.4297C27.7566 28.0127 26.9299 28.3403 26.0679 28.3403H3.31573C2.4537 28.3403 1.62697 28.0127 1.01742 27.4297C0.407871 26.8466 0.0654297 26.0558 0.0654297 25.2313V6.57735C0.0654297 5.75279 0.407871 4.96201 1.01742 4.37896C1.62697 3.79591 2.4537 3.46836 3.31573 3.46836H6.56604V1.91387C6.56604 1.50159 6.73726 1.1062 7.04204 0.814676C7.34681 0.523151 7.76017 0.359375 8.19119 0.359375C8.62221 0.359375 9.03557 0.523151 9.34035 0.814676C9.64512 1.1062 9.81634 1.50159 9.81634 1.91387V3.46836H19.5673V1.91387C19.5673 1.50159 19.7385 1.1062 20.0433 0.814676C20.348 0.523151 20.7614 0.359375 21.1924 0.359375ZM26.0679 6.57735H3.31573V25.2313H26.0679V6.57735ZM19.2812 10.2755C19.5877 9.99232 19.9983 9.83564 20.4244 9.83918C20.8505 9.84272 21.2581 10.0062 21.5594 10.2944C21.8607 10.5826 22.0316 10.9725 22.0353 11.3801C22.039 11.7877 21.8752 12.1804 21.5792 12.4735L13.5477 20.1574C13.3953 20.3033 13.2142 20.4191 13.015 20.4981C12.8158 20.5771 12.6022 20.6178 12.3865 20.6178C12.1708 20.6178 11.9573 20.5771 11.758 20.4981C11.5588 20.4191 11.3778 20.3033 11.2253 20.1574L7.78978 16.8681C7.49374 16.5749 7.32994 16.1822 7.33364 15.7747C7.33734 15.3671 7.50826 14.9772 7.80958 14.689C8.11089 14.4008 8.5185 14.2373 8.94461 14.2337C9.37072 14.2302 9.78124 14.3869 10.0877 14.67L12.3873 16.8681L19.2812 10.2755Z" fill="#181F29"/>
</svg>
