<svg width="88" height="88" viewBox="0 0 88 88" fill="none" xmlns="http://www.w3.org/2000/svg">
<path d="M44.0003 0.666016C49.7467 0.666016 55.2577 2.94875 59.321 7.01203C63.3843 11.0753 65.667 16.5863 65.667 22.3327C65.667 28.079 63.3843 33.59 59.321 37.6533C55.2577 41.7166 49.7467 43.9993 44.0003 43.9993C38.254 43.9993 32.743 41.7166 28.6797 37.6533C24.6164 33.59 22.3337 28.079 22.3337 22.3327C22.3337 16.5863 24.6164 11.0753 28.6797 7.01203C32.743 2.94875 38.254 0.666016 44.0003 0.666016ZM44.0003 54.8327C67.942 54.8327 87.3337 64.5285 87.3337 76.4993V87.3327H0.666992V76.4993C0.666992 64.5285 20.0587 54.8327 44.0003 54.8327Z" fill="#CCCCCC"/>
</svg>
