<svg width="26" height="34" viewBox="0 0 26 34" fill="none" xmlns="http://www.w3.org/2000/svg">
<path d="M0.120117 4.12039C0.120117 3.26639 0.459366 2.44737 1.06323 1.84351C1.6671 1.23964 2.48612 0.900391 3.34012 0.900391H16.2201C16.6471 0.900482 17.0565 1.07017 17.3584 1.37212L25.4084 9.42212C25.7103 9.72398 25.88 10.1334 25.8801 10.5604V29.8804C25.8801 30.7344 25.5409 31.5534 24.937 32.1573C24.3331 32.7611 23.5141 33.1004 22.6601 33.1004H3.34012C2.48612 33.1004 1.6671 32.7611 1.06323 32.1573C0.459366 31.5534 0.120117 30.7344 0.120117 29.8804V4.12039ZM21.9936 10.5604L16.2201 4.78693V10.5604H21.9936ZM13.0001 4.12039H3.34012V29.8804H22.6601V13.7804H14.6101C14.1831 13.7804 13.7736 13.6108 13.4717 13.3088C13.1697 13.0069 13.0001 12.5974 13.0001 12.1704V4.12039ZM6.56012 18.6104C6.56012 18.1834 6.72974 17.7739 7.03168 17.4719C7.33361 17.17 7.74312 17.0004 8.17012 17.0004H17.8301C18.2571 17.0004 18.6666 17.17 18.9686 17.4719C19.2705 17.7739 19.4401 18.1834 19.4401 18.6104C19.4401 19.0374 19.2705 19.4469 18.9686 19.7488C18.6666 20.0508 18.2571 20.2204 17.8301 20.2204H8.17012C7.74312 20.2204 7.33361 20.0508 7.03168 19.7488C6.72974 19.4469 6.56012 19.0374 6.56012 18.6104ZM6.56012 25.0504C6.56012 24.6234 6.72974 24.2139 7.03168 23.9119C7.33361 23.61 7.74312 23.4404 8.17012 23.4404H17.8301C18.2571 23.4404 18.6666 23.61 18.9686 23.9119C19.2705 24.2139 19.4401 24.6234 19.4401 25.0504C19.4401 25.4774 19.2705 25.8869 18.9686 26.1888C18.6666 26.4908 18.2571 26.6604 17.8301 26.6604H8.17012C7.74312 26.6604 7.33361 26.4908 7.03168 26.1888C6.72974 25.8869 6.56012 25.4774 6.56012 25.0504Z" fill="#181F29"/>
</svg>
