<svg width="101" height="33" viewBox="0 0 101 33" fill="none" xmlns="http://www.w3.org/2000/svg">
    <g clip-path="url(#clip0_3109_11220)">
        <path d="M36.045 31.35C33.1517 31.35 31.04 30.615 29.71 29.145C28.4033 27.6517 27.75 25.505 27.75 22.705C27.75 19.9283 28.415 17.7933 29.745 16.3C31.075 14.8067 33.175 14.06 36.045 14.06C38.915 14.06 41.015 14.8067 42.345 16.3C43.675 17.7933 44.34 19.9283 44.34 22.705C44.34 25.505 43.6867 27.6517 42.38 29.145C41.0733 30.615 38.9617 31.35 36.045 31.35ZM36.045 28.9C38.0283 28.9 39.4283 28.41 40.245 27.43C41.0617 26.4267 41.47 24.8517 41.47 22.705C41.47 20.5583 41.05 18.995 40.21 18.015C39.3933 17.0117 38.005 16.51 36.045 16.51C34.085 16.51 32.685 17.0117 31.845 18.015C31.0283 18.995 30.62 20.5583 30.62 22.705C30.62 24.8517 31.0283 26.4267 31.845 27.43C32.6617 28.41 34.0617 28.9 36.045 28.9ZM52.1527 31.35C51.0327 31.35 50.146 31.0583 49.4927 30.475C48.8627 29.8683 48.5477 28.8533 48.5477 27.43V7.41H51.4177V27.115C51.4177 27.815 51.5343 28.2933 51.7677 28.55C52.001 28.8067 52.3627 28.935 52.8527 28.935C53.3893 28.935 53.9143 28.865 54.4277 28.725V31C54.0543 31.14 53.681 31.2333 53.3077 31.28C52.9343 31.3267 52.5493 31.35 52.1527 31.35ZM60.4583 31.35C59.3383 31.35 58.4517 31.0583 57.7983 30.475C57.1683 29.8683 56.8533 28.8533 56.8533 27.43V7.41H59.7233V27.115C59.7233 27.815 59.84 28.2933 60.0733 28.55C60.3067 28.8067 60.6683 28.935 61.1583 28.935C61.695 28.935 62.22 28.865 62.7333 28.725V31C62.36 31.14 61.9867 31.2333 61.6133 31.28C61.24 31.3267 60.855 31.35 60.4583 31.35ZM71.1927 31.35C70.1427 31.35 69.1743 31.1633 68.2877 30.79C67.401 30.4167 66.6893 29.8683 66.1527 29.145C65.616 28.3983 65.3477 27.465 65.3477 26.345C65.3477 24.8283 65.8493 23.5917 66.8527 22.635C67.856 21.655 69.4893 21.165 71.7527 21.165H77.5277V20.15C77.5277 19.24 77.3993 18.5167 77.1427 17.98C76.9093 17.4433 76.4543 17.0583 75.7777 16.825C75.101 16.5917 74.1093 16.475 72.8027 16.475C71.7993 16.475 70.831 16.5567 69.8977 16.72C68.9643 16.8833 68.0893 17.105 67.2727 17.385V15.005C68.0193 14.725 68.8943 14.5033 69.8977 14.34C70.9243 14.1533 72.021 14.06 73.1877 14.06C75.5443 14.06 77.306 14.5383 78.4727 15.495C79.6627 16.4517 80.2577 18.0033 80.2577 20.15V31H77.8427L77.6327 29.11C76.9093 29.8567 76.0343 30.4167 75.0077 30.79C73.981 31.1633 72.7093 31.35 71.1927 31.35ZM71.9277 29.005C73.141 29.005 74.2143 28.795 75.1477 28.375C76.081 27.9317 76.8743 27.3367 77.5277 26.59V23.37H71.8227C70.516 23.37 69.5827 23.615 69.0227 24.105C68.4627 24.595 68.1827 25.3417 68.1827 26.345C68.1827 27.3483 68.521 28.0483 69.1977 28.445C69.8743 28.8183 70.7843 29.005 71.9277 29.005Z" fill="black"/>
        <path d="M20.4028 3H15.8889C8.21806 3 2 9.49165 2 17.5C2 25.5084 8.21806 32 15.8889 32H20.4028V24.75H15.8889C14.0471 24.75 12.2808 23.9862 10.9784 22.6265C9.67609 21.2669 8.94444 19.4228 8.94444 17.5C8.94444 15.5772 9.67609 13.7331 10.9784 12.3735C12.2808 11.0138 14.0471 10.25 15.8889 10.25H20.4028V3ZM22.4861 10.25H24.9167C25.4692 10.25 25.9991 10.0208 26.3898 9.61296C26.7805 9.20507 27 8.65185 27 8.075V5.175C27 4.59815 26.7805 4.04493 26.3898 3.63704C25.9991 3.22915 25.4692 3 24.9167 3H22.4861V10.25ZM22.4861 24.75V32H24.9167C25.4692 32 25.9991 31.7708 26.3898 31.363C26.7805 30.9551 27 30.4018 27 29.825V26.925C27 26.3482 26.7805 25.7949 26.3898 25.387C25.9991 24.9792 25.4692 24.75 24.9167 24.75H22.4861Z" fill="#F30000"/>
        <path d="M87.2222 31H90.1111C95.0204 31 99 26.9707 99 22C99 17.0293 95.0204 13 90.1111 13H87.2222V17.5H90.1111C91.2899 17.5 92.4203 17.9741 93.2538 18.818C94.0873 19.6619 94.5556 20.8065 94.5556 22C94.5556 23.1935 94.0873 24.3381 93.2538 25.182C92.4203 26.0259 91.2899 26.5 90.1111 26.5H87.2222V31ZM85.8889 26.5H84.3333C83.9797 26.5 83.6406 26.6422 83.3905 26.8954C83.1405 27.1486 83 27.492 83 27.85V29.65C83 30.008 83.1405 30.3514 83.3905 30.6046C83.6406 30.8578 83.9797 31 84.3333 31L85.8889 31V26.5ZM85.8889 17.5V13L84.3333 13C83.9797 13 83.6406 13.1422 83.3905 13.3954C83.1405 13.6486 83 13.992 83 14.35V16.15C83 16.508 83.1405 16.8514 83.3905 17.1046C83.6406 17.3578 83.9797 17.5 84.3333 17.5H85.8889Z" fill="#467EF0"/>
        <path d="M83 1H86V18H85C83.8954 18 83 17.1046 83 16V1Z" fill="#467EF0"/>
    </g>
    <defs>
        <clipPath id="clip0_3109_11220">
            <rect width="101" height="33" fill="white"/>
        </clipPath>
    </defs>
</svg>