<svg width="13" height="13" viewBox="0 0 13 13" fill="none" xmlns="http://www.w3.org/2000/svg">
<g clip-path="url(#clip0_3109_11449)">
<path d="M8.56934 6.63965C8.43392 6.70312 8.30273 6.77295 8.17578 6.84912C8.04883 6.92529 7.92399 7.00993 7.80127 7.10303C7.48389 6.90413 7.14535 6.75391 6.78564 6.65234C6.42594 6.55078 6.0599 6.5 5.6875 6.5C5.3151 6.5 4.9554 6.54867 4.6084 6.646C4.26139 6.74333 3.93766 6.87874 3.63721 7.05225C3.33675 7.22575 3.0638 7.43734 2.81836 7.68701C2.57292 7.93669 2.36133 8.21175 2.18359 8.51221C2.00586 8.81266 1.86833 9.13639 1.771 9.4834C1.67367 9.8304 1.625 10.1901 1.625 10.5625H0.8125C0.8125 10.0547 0.886556 9.56592 1.03467 9.09619C1.18278 8.62646 1.39648 8.19271 1.67578 7.79492C1.95508 7.39714 2.28516 7.04378 2.66602 6.73486C3.04688 6.42594 3.47852 6.18262 3.96094 6.00488C3.48275 5.69173 3.11035 5.29818 2.84375 4.82422C2.57715 4.35026 2.44173 3.82552 2.4375 3.25C2.4375 2.80143 2.52214 2.38037 2.69141 1.98682C2.86068 1.59326 3.09131 1.24837 3.3833 0.952148C3.67529 0.655924 4.02018 0.423177 4.41797 0.253906C4.81576 0.0846354 5.23893 0 5.6875 0C6.13607 0 6.55713 0.0846354 6.95068 0.253906C7.34424 0.423177 7.68913 0.653809 7.98535 0.945801C8.28158 1.23779 8.51432 1.58268 8.68359 1.98047C8.85286 2.37826 8.9375 2.80143 8.9375 3.25C8.9375 3.5293 8.90365 3.80225 8.83594 4.06885C8.76823 4.33545 8.66667 4.58724 8.53125 4.82422C8.39583 5.0612 8.23714 5.27913 8.05518 5.47803C7.87321 5.67692 7.65951 5.85254 7.41406 6.00488C7.82031 6.16146 8.2054 6.37305 8.56934 6.63965ZM3.25 3.25C3.25 3.58854 3.31348 3.90381 3.44043 4.1958C3.56738 4.48779 3.74089 4.74593 3.96094 4.97021C4.18099 5.1945 4.43913 5.37012 4.73535 5.49707C5.03158 5.62402 5.34896 5.6875 5.6875 5.6875C6.02181 5.6875 6.33708 5.62402 6.6333 5.49707C6.92952 5.37012 7.18766 5.19661 7.40771 4.97656C7.62777 4.75651 7.80339 4.49837 7.93457 4.20215C8.06576 3.90592 8.12923 3.58854 8.125 3.25C8.125 2.91569 8.06152 2.60042 7.93457 2.3042C7.80762 2.00798 7.63411 1.74984 7.41406 1.52979C7.19401 1.30973 6.93376 1.13411 6.6333 1.00293C6.33285 0.871745 6.01758 0.808268 5.6875 0.8125C5.34896 0.8125 5.03369 0.875977 4.7417 1.00293C4.44971 1.12988 4.19157 1.30339 3.96729 1.52344C3.743 1.74349 3.56738 2.00374 3.44043 2.3042C3.31348 2.60465 3.25 2.91992 3.25 3.25ZM13 7.3125V9.75H10.5625V8.9375H11.7686C11.5781 8.68359 11.3411 8.4847 11.0576 8.34082C10.7741 8.19694 10.4736 8.125 10.1562 8.125C9.90658 8.125 9.67171 8.16732 9.45166 8.25195C9.23161 8.33659 9.0306 8.45296 8.84863 8.60107C8.66667 8.74919 8.51855 8.92904 8.4043 9.14062C8.29004 9.35221 8.20964 9.57861 8.16309 9.81982L7.35693 9.68018C7.41618 9.3374 7.53044 9.02214 7.69971 8.73438C7.86898 8.44661 8.07633 8.19694 8.32178 7.98535C8.56722 7.77376 8.84863 7.60872 9.16602 7.49023C9.4834 7.37174 9.81348 7.3125 10.1562 7.3125C10.5413 7.3125 10.9095 7.38656 11.2607 7.53467C11.612 7.68278 11.9209 7.8986 12.1875 8.18213V7.3125H13ZM10.1562 12.1875C10.4017 12.1875 10.6366 12.1452 10.8608 12.0605C11.0851 11.9759 11.2861 11.8595 11.4639 11.7114C11.6416 11.5633 11.7897 11.3835 11.9082 11.1719C12.0267 10.9603 12.1071 10.7339 12.1494 10.4927L12.9556 10.6323C12.8963 10.9751 12.7821 11.2904 12.6128 11.5781C12.4435 11.8659 12.2362 12.1156 11.9907 12.3271C11.7453 12.5387 11.4639 12.7038 11.1465 12.8223C10.8291 12.9408 10.499 13 10.1562 13C9.77116 13 9.40299 12.9259 9.05176 12.7778C8.70052 12.6297 8.3916 12.4139 8.125 12.1304V13H7.3125V10.5625H9.75V11.375H8.54395C8.73438 11.6289 8.97135 11.8278 9.25488 11.9717C9.53841 12.1156 9.83887 12.1875 10.1562 12.1875Z" fill="#181F29"/>
</g>
<defs>
<clipPath id="clip0_3109_11449">
<rect width="13" height="13" fill="white"/>
</clipPath>
</defs>
</svg>
