<svg width="26" height="26" viewBox="0 0 26 26" fill="none" xmlns="http://www.w3.org/2000/svg">
<path d="M17.1167 3.90039C17.381 3.90039 17.6345 4.00083 17.8215 4.17962C18.0084 4.3584 18.1134 4.60088 18.1134 4.85372V5.80706H20.1067C20.6354 5.80706 21.1424 6.00794 21.5162 6.36551C21.89 6.72308 22.1 7.20804 22.1 7.71372V19.1537C22.1 19.6594 21.89 20.1444 21.5162 20.5019C21.1424 20.8595 20.6354 21.0604 20.1067 21.0604H6.15337C5.6247 21.0604 5.11769 20.8595 4.74387 20.5019C4.37005 20.1444 4.16003 19.6594 4.16003 19.1537V7.71372C4.16003 7.20804 4.37005 6.72308 4.74387 6.36551C5.11769 6.00794 5.6247 5.80706 6.15337 5.80706H8.1467V4.85372C8.1467 4.60088 8.25171 4.3584 8.43862 4.17962C8.62553 4.00083 8.87903 3.90039 9.14337 3.90039C9.4077 3.90039 9.66121 4.00083 9.84812 4.17962C10.035 4.3584 10.14 4.60088 10.14 4.85372V5.80706H16.12V4.85372C16.12 4.60088 16.225 4.3584 16.412 4.17962C16.5989 4.00083 16.8524 3.90039 17.1167 3.90039ZM20.1067 7.71372H6.15337V19.1537H20.1067V7.71372ZM15.9446 9.9817C16.1326 9.80805 16.3844 9.71196 16.6457 9.71413C16.907 9.7163 17.157 9.81656 17.3418 9.99332C17.5266 10.1701 17.6314 10.4092 17.6336 10.6591C17.6359 10.9091 17.5355 11.1499 17.3539 11.3297L12.4284 16.042C12.3349 16.1315 12.2239 16.2025 12.1017 16.251C11.9795 16.2994 11.8485 16.3244 11.7163 16.3244C11.584 16.3244 11.453 16.2994 11.3308 16.251C11.2086 16.2025 11.0976 16.1315 11.0041 16.042L8.89719 14.0248C8.71564 13.845 8.61518 13.6042 8.61745 13.3542C8.61972 13.1043 8.72454 12.8651 8.90933 12.6884C9.09412 12.5116 9.3441 12.4114 9.60542 12.4092C9.86674 12.407 10.1185 12.5031 10.3065 12.6768L11.7168 14.0248L15.9446 9.9817Z" fill="#181F29"/>
</svg>
