<svg width="20" height="20" viewBox="0 0 20 20" fill="none" xmlns="http://www.w3.org/2000/svg">
<path fill-rule="evenodd" clip-rule="evenodd" d="M11.8401 4.02435C12.2179 4.14102 12.579 4.29102 12.9234 4.47435L14.4509 3.55768C14.6102 3.46215 14.7968 3.42257 14.9812 3.44521C15.1655 3.46786 15.337 3.55144 15.4684 3.68268L16.3167 4.53102C16.448 4.66243 16.5316 4.83393 16.5542 5.01827C16.5769 5.20261 16.5373 5.38924 16.4417 5.54852L15.5251 7.07601C15.7084 7.42046 15.8584 7.78157 15.9751 8.15935L17.7026 8.59185C17.8828 8.63699 18.0427 8.74106 18.157 8.88751C18.2713 9.03396 18.3334 9.21441 18.3334 9.40018V10.5985C18.3334 10.7843 18.2713 10.9647 18.157 11.1112C18.0427 11.2576 17.8828 11.3617 17.7026 11.4068L15.9751 11.8393C15.8584 12.2171 15.7084 12.5782 15.5251 12.9227L16.4417 14.4502C16.5373 14.6095 16.5769 14.7961 16.5542 14.9804C16.5316 15.1648 16.448 15.3363 16.3167 15.4677L15.4684 16.316C15.337 16.4473 15.1655 16.5308 14.9812 16.5535C14.7968 16.5761 14.6102 16.5365 14.4509 16.441L12.9234 15.5243C12.579 15.7077 12.2179 15.8577 11.8401 15.9743L11.4076 17.7018C11.3624 17.8821 11.2584 18.042 11.1119 18.1563C10.9655 18.2706 10.785 18.3327 10.5992 18.3327H9.40091C9.21514 18.3327 9.0347 18.2706 8.88824 18.1563C8.74179 18.042 8.63772 17.8821 8.59258 17.7018L8.16008 15.9743C7.78566 15.8586 7.42295 15.708 7.07675 15.5243L5.54925 16.441C5.38997 16.5365 5.20335 16.5761 5.019 16.5535C4.83466 16.5308 4.66317 16.4473 4.53175 16.316L3.68341 15.4677C3.55217 15.3363 3.46859 15.1648 3.44594 14.9804C3.4233 14.7961 3.46288 14.6095 3.55841 14.4502L4.47508 12.9227C4.29145 12.5765 4.14079 12.2138 4.02508 11.8393L2.29758 11.4068C2.11751 11.3617 1.95766 11.2578 1.84338 11.1115C1.7291 10.9652 1.66694 10.785 1.66675 10.5993V9.40102C1.66675 9.21524 1.72883 9.0348 1.84313 8.88834C1.95742 8.74189 2.11738 8.63783 2.29758 8.59268L4.02508 8.16018C4.14175 7.7824 4.29175 7.42129 4.47508 7.07685L3.55841 5.54935C3.46288 5.39007 3.4233 5.20345 3.44594 5.0191C3.46859 4.83476 3.55217 4.66327 3.68341 4.53185L4.53175 3.68268C4.66317 3.55144 4.83466 3.46786 5.019 3.44521C5.20335 3.42257 5.38997 3.46215 5.54925 3.55768L7.07675 4.47435C7.42119 4.29102 7.7823 4.14102 8.16008 4.02435L8.59258 2.29685C8.63769 2.11678 8.74163 1.95693 8.88791 1.84265C9.0342 1.72837 9.21445 1.66621 9.40008 1.66602H10.5984C10.7842 1.66602 10.9646 1.7281 11.1111 1.8424C11.2575 1.95669 11.3616 2.11664 11.4067 2.29685L11.8401 4.02435ZM10.0001 13.3327C10.8841 13.3327 11.732 12.9815 12.3571 12.3564C12.9822 11.7312 13.3334 10.8834 13.3334 9.99935C13.3334 9.11529 12.9822 8.26745 12.3571 7.64233C11.732 7.0172 10.8841 6.66602 10.0001 6.66602C9.11603 6.66602 8.26818 7.0172 7.64306 7.64233C7.01794 8.26745 6.66675 9.11529 6.66675 9.99935C6.66675 10.8834 7.01794 11.7312 7.64306 12.3564C8.26818 12.9815 9.11603 13.3327 10.0001 13.3327Z" fill="#181F29"/>
</svg>
