<svg width="13" height="13" viewBox="0 0 13 13" fill="none" xmlns="http://www.w3.org/2000/svg">
<g clip-path="url(#clip0_2480_9361)">
<path d="M7.99502 3.50953C7.99502 3.92221 7.91715 4.30959 7.76143 4.67166C7.6057 5.03373 7.39352 5.35103 7.12488 5.62355C6.85625 5.89608 6.53895 6.11021 6.17299 6.26594C5.80702 6.42167 5.4177 6.49953 5.00502 6.49953C4.66242 6.49953 4.33149 6.5443 4.01225 6.63385C3.693 6.72339 3.39517 6.84798 3.11875 7.0076C2.84233 7.16722 2.59122 7.36188 2.36541 7.59158C2.1396 7.82128 1.94494 8.07434 1.78143 8.35076C1.61791 8.62718 1.49138 8.92501 1.40184 9.24426C1.31229 9.5635 1.26752 9.89443 1.26752 10.237H0.52002C0.52002 9.78152 0.588151 9.33575 0.724414 8.89971C0.860677 8.46367 1.05729 8.06072 1.31424 7.69086C1.57119 7.321 1.87681 6.99202 2.23109 6.70393C2.58538 6.41583 2.98054 6.19586 3.41658 6.04402C3.19856 5.90387 3.0039 5.7423 2.8326 5.55932C2.6613 5.37633 2.51335 5.17583 2.38877 4.95781C2.26419 4.73979 2.1727 4.51009 2.1143 4.26871C2.0559 4.02733 2.02281 3.77427 2.01502 3.50953C2.01502 3.09685 2.09288 2.70947 2.24861 2.3474C2.40434 1.98533 2.61652 1.66803 2.88516 1.39551C3.15379 1.12298 3.47109 0.908854 3.83705 0.753125C4.20301 0.597396 4.59234 0.519531 5.00502 0.519531C5.4177 0.519531 5.80508 0.597396 6.16715 0.753125C6.52922 0.908854 6.84652 1.12104 7.11904 1.38967C7.39157 1.6583 7.6057 1.9756 7.76143 2.34156C7.91715 2.70753 7.99502 3.09685 7.99502 3.50953ZM5.00502 5.75203C5.31258 5.75203 5.60263 5.69363 5.87516 5.57684C6.14768 5.46004 6.38517 5.30042 6.58762 5.09797C6.79007 4.89552 6.95163 4.65803 7.07232 4.38551C7.19301 4.11298 7.25141 3.82099 7.24752 3.50953C7.24752 3.20197 7.18912 2.91192 7.07232 2.63939C6.95553 2.36687 6.79591 2.12938 6.59346 1.92693C6.39101 1.72449 6.15158 1.56292 5.87516 1.44223C5.59874 1.32154 5.30869 1.26314 5.00502 1.26703C4.69356 1.26703 4.40352 1.32543 4.13488 1.44223C3.86625 1.55902 3.62876 1.71865 3.42242 1.92109C3.21608 2.12354 3.05451 2.36298 2.93771 2.63939C2.82092 2.91581 2.76252 3.20586 2.76252 3.50953C2.76252 3.82099 2.82092 4.11104 2.93771 4.37967C3.05451 4.6483 3.21413 4.88579 3.41658 5.09213C3.61903 5.29847 3.85652 5.46004 4.12904 5.57684C4.40157 5.69363 4.69356 5.75203 5.00502 5.75203ZM12.48 9.11578C12.48 9.57908 12.3924 10.0151 12.2172 10.4239C12.042 10.8327 11.8007 11.1889 11.4931 11.4926C11.1855 11.7963 10.8293 12.0357 10.4244 12.2109C10.0195 12.3861 9.58346 12.4756 9.11627 12.4795C8.65298 12.4795 8.21693 12.3919 7.80814 12.2167C7.39936 12.0415 7.04313 11.8002 6.73945 11.4926C6.43578 11.185 6.19635 10.8288 6.02115 10.4239C5.84596 10.019 5.75641 9.58297 5.75252 9.11578C5.75252 8.65249 5.84012 8.21645 6.01531 7.80766C6.19051 7.39887 6.43189 7.04264 6.73945 6.73897C7.04702 6.43529 7.40325 6.19586 7.80814 6.02066C8.21304 5.84547 8.64908 5.75592 9.11627 5.75203C9.57956 5.75203 10.0156 5.83963 10.4244 6.01482C10.8332 6.19002 11.1894 6.4314 11.4931 6.73897C11.7968 7.04653 12.0362 7.40276 12.2114 7.80766C12.3866 8.21255 12.4761 8.64859 12.48 9.11578ZM9.11627 11.732C9.47834 11.732 9.81705 11.6639 10.1324 11.5276C10.4478 11.3914 10.7242 11.2045 10.9617 10.967C11.1991 10.7295 11.386 10.4531 11.5223 10.1378C11.6585 9.8224 11.7286 9.48174 11.7325 9.11578C11.7325 8.75371 11.6644 8.415 11.5281 8.09965C11.3919 7.7843 11.205 7.50788 10.9675 7.27039C10.73 7.0329 10.4536 6.84603 10.1382 6.70977C9.82289 6.5735 9.48223 6.50342 9.11627 6.49953C8.7542 6.49953 8.41549 6.56766 8.10014 6.70393C7.78479 6.84019 7.50837 7.02706 7.27088 7.26455C7.03339 7.50204 6.84652 7.77846 6.71025 8.09381C6.57399 8.40916 6.50391 8.74982 6.50002 9.11578C6.50002 9.47785 6.56815 9.81656 6.70441 10.1319C6.84068 10.4473 7.02755 10.7237 7.26504 10.9612C7.50253 11.1987 7.77895 11.3855 8.0943 11.5218C8.40965 11.6581 8.75031 11.7281 9.11627 11.732ZM8.74252 10.9845V8.74203H9.49002V10.9845H8.74252ZM8.74252 7.99453V7.24703H9.49002V7.99453H8.74252Z" fill="#181F29"/>
</g>
<defs>
<clipPath id="clip0_2480_9361">
<rect width="13" height="13" fill="white"/>
</clipPath>
</defs>
</svg>
